<svg width="34" height="33" viewBox="0 0 34 33" fill="none" xmlns="http://www.w3.org/2000/svg">
    <path d="M25.7786 10.403C25.7612 10.4633 24.3793 14.7089 21.0765 16.9824L17.2522 7.98315H16.0354L12.2111 16.9824C8.91703 14.7003 7.52639 10.4633 7.509 10.403L6.22266 10.6011V21.891H7.54377V13.7874C8.39554 15.3117 9.72535 17.0943 11.6549 18.3L9.14301 24.2162H10.5771L12.8282 18.92C13.9321 19.4109 15.1923 19.7037 16.6438 19.7037C18.0953 19.7037 19.3556 19.4023 20.4594 18.92L22.7105 24.2162H24.1446L21.6328 18.3C23.5623 17.0943 24.8921 15.3117 25.7439 13.7874V21.891H27.065V10.6097L25.7786 10.4117V10.403ZM16.6438 18.3947C15.4096 18.3947 14.3232 18.1105 13.3584 17.6541L16.6438 9.92078L19.9292 17.6541C18.9731 18.1105 17.878 18.3947 16.6438 18.3947Z" fill="#673ECD"/>
    <path d="M16.653 0C7.46603 0 0 7.39744 0 16.5C0 25.6026 7.46603 33 16.653 33C25.8399 33 33.306 25.6026 33.306 16.5C33.306 7.39744 25.8313 0 16.653 0ZM16.653 31.691C8.19612 31.691 1.32111 24.8792 1.32111 16.5C1.32111 8.12082 8.19612 1.30898 16.653 1.30898C25.1099 1.30898 31.9849 8.12082 31.9849 16.5C31.9849 24.8792 25.1099 31.691 16.653 31.691Z" fill="#673ECD"/>
    <style>
        path { fill: #673ECD; }
        @media (prefers-color-scheme: dark) {
            path { fill: #FFF; }
        }
    </style>
</svg>
